solid csg.js
facet normal -1 0 0
outer loop
vertex 0 0 0
vertex 0 0 3
vertex 0 45 3
endloop
endfacet
facet normal -1 0 0
outer loop
vertex 0 0 0
vertex 0 45 3
vertex 0 45 0
endloop
endfacet
facet normal 1 0 0
outer loop
vertex 45 45 0
vertex 45 45 3
vertex 45 0 3
endloop
endfacet
facet normal 1 0 0
outer loop
vertex 45 45 0
vertex 45 0 3
vertex 45 0 0
endloop
endfacet
facet normal 1 0 0
outer loop
vertex 45 45 10
vertex 45 45 13
vertex 45 0 13
endloop
endfacet
facet normal 1 0 0
outer loop
vertex 45 45 10
vertex 45 0 13
vertex 45 0 10
endloop
endfacet
facet normal 1 0 0
outer loop
vertex 45 45 20
vertex 45 45 23
vertex 45 0 23
endloop
endfacet
facet normal 1 0 0
outer loop
vertex 45 45 20
vertex 45 0 23
vertex 45 0 20
endloop
endfacet
facet normal 0 -1 0
outer loop
vertex 45 0 0
vertex 45 0 3
vertex 0 0 3
endloop
endfacet
facet normal 0 -1 0
outer loop
vertex 45 0 0
vertex 0 0 3
vertex 0 0 0
endloop
endfacet
facet normal 0 -1 0
outer loop
vertex 30 0 3
vertex 30 0 10
vertex 27 0 10
endloop
endfacet
facet normal 0 -1 0
outer loop
vertex 30 0 3
vertex 27 0 10
vertex 27 0 3
endloop
endfacet
facet normal 0 -1 0
outer loop
vertex 45 0 10
vertex 45 0 13
vertex 15 0 13
endloop
endfacet
facet normal 0 -1 0
outer loop
vertex 45 0 10
vertex 15 0 13
vertex 15 0 10
endloop
endfacet
facet normal 0 -1 0
outer loop
vertex 18 0 13
vertex 18 0 20
vertex 15 0 20
endloop
endfacet
facet normal 0 -1 0
outer loop
vertex 18 0 13
vertex 15 0 20
vertex 15 0 13
endloop
endfacet
facet normal 0 -1 0
outer loop
vertex 45 0 20
vertex 45 0 23
vertex 15 0 23
endloop
endfacet
facet normal 0 -1 0
outer loop
vertex 45 0 20
vertex 15 0 23
vertex 15 0 20
endloop
endfacet
facet normal 0 1 0
outer loop
vertex 45 45 23
vertex 45 45 20
vertex 15 45 20
endloop
endfacet
facet normal 0 1 0
outer loop
vertex 45 45 23
vertex 15 45 20
vertex 15 45 23
endloop
endfacet
facet normal 0 1 0
outer loop
vertex 18 45 20
vertex 18 45 13
vertex 15 45 13
endloop
endfacet
facet normal 0 1 0
outer loop
vertex 18 45 20
vertex 15 45 13
vertex 15 45 20
endloop
endfacet
facet normal 0 1 0
outer loop
vertex 45 45 13
vertex 45 45 10
vertex 15 45 10
endloop
endfacet
facet normal 0 1 0
outer loop
vertex 45 45 13
vertex 15 45 10
vertex 15 45 13
endloop
endfacet
facet normal 0 1 0
outer loop
vertex 30 45 10
vertex 30 45 3
vertex 27 45 3
endloop
endfacet
facet normal 0 1 0
outer loop
vertex 30 45 10
vertex 27 45 3
vertex 27 45 10
endloop
endfacet
facet normal 0 1 0
outer loop
vertex 45 45 3
vertex 45 45 0
vertex 0 45 0
endloop
endfacet
facet normal 0 1 0
outer loop
vertex 45 45 3
vertex 0 45 0
vertex 0 45 3
endloop
endfacet
facet normal 0 0 -1
outer loop
vertex 0 0 0
vertex 0 45 0
vertex 45 45 0
endloop
endfacet
facet normal 0 0 -1
outer loop
vertex 0 0 0
vertex 45 45 0
vertex 45 0 0
endloop
endfacet
facet normal 0 0 1
outer loop
vertex 27 0 3
vertex 27 45 3
vertex 0 45 3
endloop
endfacet
facet normal 0 0 1
outer loop
vertex 27 0 3
vertex 0 45 3
vertex 0 0 3
endloop
endfacet
facet normal 0 0 1
outer loop
vertex 45 0 3
vertex 45 45 3
vertex 30 45 3
endloop
endfacet
facet normal 0 0 1
outer loop
vertex 45 0 3
vertex 30 45 3
vertex 30 0 3
endloop
endfacet
facet normal 0 0 1
outer loop
vertex 45 0 13
vertex 45 45 13
vertex 18 45 13
endloop
endfacet
facet normal 0 0 1
outer loop
vertex 45 0 13
vertex 18 45 13
vertex 18 0 13
endloop
endfacet
facet normal 1 0 0
outer loop
vertex 30 0 3
vertex 30 45 3
vertex 30 45 10
endloop
endfacet
facet normal 1 0 0
outer loop
vertex 30 0 3
vertex 30 45 10
vertex 30 0 10
endloop
endfacet
facet normal -1 0 0
outer loop
vertex 27 0 3
vertex 27 0 10
vertex 27 45 10
endloop
endfacet
facet normal -1 0 0
outer loop
vertex 27 0 3
vertex 27 45 10
vertex 27 45 3
endloop
endfacet
facet normal -1 0 0
outer loop
vertex 15 45 23
vertex 15 45 10
vertex 15 0 10
endloop
endfacet
facet normal -1 0 0
outer loop
vertex 15 45 23
vertex 15 0 10
vertex 15 0 23
endloop
endfacet
facet normal 0 0 1
outer loop
vertex 45 0 23
vertex 45 45 23
vertex 15 45 23
endloop
endfacet
facet normal 0 0 1
outer loop
vertex 45 0 23
vertex 15 45 23
vertex 15 0 23
endloop
endfacet
facet normal 1 0 0
outer loop
vertex 18 0 13
vertex 18 45 13
vertex 18 45 20
endloop
endfacet
facet normal 1 0 0
outer loop
vertex 18 0 13
vertex 18 45 20
vertex 18 0 20
endloop
endfacet
facet normal 0 0 -1
outer loop
vertex 18 45 20
vertex 45 45 20
vertex 45 0 20
endloop
endfacet
facet normal 0 0 -1
outer loop
vertex 18 45 20
vertex 45 0 20
vertex 18 0 20
endloop
endfacet
facet normal 0 0 -1
outer loop
vertex 27 45 10
vertex 27 0 10
vertex 15 0 10
endloop
endfacet
facet normal 0 0 -1
outer loop
vertex 27 45 10
vertex 15 0 10
vertex 15 45 10
endloop
endfacet
facet normal 0 0 -1
outer loop
vertex 45 45 10
vertex 45 0 10
vertex 30 0 10
endloop
endfacet
facet normal 0 0 -1
outer loop
vertex 45 45 10
vertex 30 0 10
vertex 30 45 10
endloop
endfacet
endsolid csg.js
